<?xml version="1.0" encoding="UTF-8" standalone="no"?>
<!-- Created with Inkscape (http://www.inkscape.org/) -->

<svg
   xmlns:dc="http://purl.org/dc/elements/1.1/"
   xmlns:cc="http://creativecommons.org/ns#"
   xmlns:rdf="http://www.w3.org/1999/02/22-rdf-syntax-ns#"
   xmlns:svg="http://www.w3.org/2000/svg"
   xmlns="http://www.w3.org/2000/svg"
   xmlns:sodipodi="http://sodipodi.sourceforge.net/DTD/sodipodi-0.dtd"
   xmlns:inkscape="http://www.inkscape.org/namespaces/inkscape"
   width="210mm"
   height="297mm"
   viewBox="0 0 210 297"
   version="1.1"
   id="svg237"
   inkscape:version="0.92.4 (5da689c313, 2019-01-14)"
   sodipodi:docname="aBanner.svg">
  <defs
     id="defs231" />
  <sodipodi:namedview
     id="base"
     pagecolor="#ffffff"
     bordercolor="#666666"
     borderopacity="1.0"
     inkscape:pageopacity="0.0"
     inkscape:pageshadow="2"
     inkscape:zoom="1.979899"
     inkscape:cx="250.52837"
     inkscape:cy="580.20305"
     inkscape:document-units="mm"
     inkscape:current-layer="layer1"
     showgrid="false"
     inkscape:window-width="1920"
     inkscape:window-height="1016"
     inkscape:window-x="0"
     inkscape:window-y="36"
     inkscape:window-maximized="1" />
  <metadata
     id="metadata234">
    <rdf:RDF>
      <cc:Work
         rdf:about="">
        <dc:format>image/svg+xml</dc:format>
        <dc:type
           rdf:resource="http://purl.org/dc/dcmitype/StillImage" />
        <dc:title></dc:title>
      </cc:Work>
    </rdf:RDF>
  </metadata>
  <g
     inkscape:label="Capa 1"
     inkscape:groupmode="layer"
     id="layer1">
    <g
       id="g58"
       transform="matrix(0.35277777,0,0,-0.35277777,56.09439,141.2506)"
       style="fill:#ffffff">
      <path
         d="M 0,0 -3.561,8.735 H -20.029 L -23.59,0 h -8.734 l 16.69,39.224 h 7.901 L 8.958,0 Z m -14.576,42.006 -7.122,6.676 7.288,3.172 6.287,-9.848 z m 2.782,-13.075 -5.175,-12.629 h 10.348 z"
         style="fill:#ffffff;fill-opacity:1;fill-rule:nonzero;stroke:none"
         id="path60"
         inkscape:connector-curvature="0" />
    </g>
    <g
       id="g70"
       transform="matrix(0.35277777,0,0,-0.35277777,71.601197,137.12882)"
       style="fill:#ffffff">
      <path
         d="m 0,0 h -6.51 v -11.684 h -8.568 V 27.262 H 0.834 c 9.292,0 14.911,-5.508 14.911,-13.464 V 13.687 C 15.745,4.673 8.734,0 0,0 m 7.066,13.631 c 0,3.839 -2.671,5.898 -6.955,5.898 H -6.51 V 7.622 h 6.788 c 4.284,0 6.788,2.56 6.788,5.898 z"
         style="fill:#ffffff;fill-opacity:1;fill-rule:nonzero;stroke:none"
         id="path72"
         inkscape:connector-curvature="0" />
    </g>
    <path
       d="m 85.164196,141.2506 v -1.4919 c -0.686858,0.88336 -1.569863,1.6884 -3.081515,1.6884 -2.257073,0 -3.572227,-1.4919 -3.572227,-3.90596 v -6.81108 h 2.983442 v 5.86881 c 0,1.41323 0.667454,2.13925 1.805869,2.13925 1.13806,0 1.864431,-0.72602 1.864431,-2.13925 v -5.86881 h 2.983442 v 10.52054 z"
       style="fill:#ffffff;fill-opacity:1;fill-rule:nonzero;stroke:none;stroke-width:0.35277775"
       id="path76"
       inkscape:connector-curvature="0" />
    <g
       id="g78"
       transform="matrix(0.35277777,0,0,-0.35277777,96.980276,141.2506)"
       style="fill:#ffffff">
      <path
         d="m 0,0 v 16.635 c 0,4.007 -1.891,6.065 -5.119,6.065 -3.226,0 -5.285,-2.058 -5.285,-6.065 V 0 h -8.457 v 29.822 h 8.457 v -4.229 c 1.947,2.504 4.451,4.785 8.735,4.785 6.399,0 10.126,-4.229 10.126,-11.072 L 8.457,0 Z"
         style="fill:#ffffff;fill-opacity:1;fill-rule:nonzero;stroke:none"
         id="path80"
         inkscape:connector-curvature="0" />
    </g>
    <g
       id="g82"
       transform="matrix(0.35277777,0,0,-0.35277777,105.61688,141.44692)"
       style="fill:#ffffff">
      <path
         d="m 0,0 c -5.175,0 -8.68,2.059 -8.68,8.958 v 14.131 h -3.56 v 7.233 h 3.56 v 7.623 h 8.458 v -7.623 h 7.009 v -7.233 h -7.009 v -12.74 c 0,-1.948 0.833,-2.894 2.725,-2.894 1.559,0 2.949,0.39 4.174,1.057 V 1.725 C 4.896,0.668 2.838,0 0,0"
         style="fill:#ffffff;fill-opacity:1;fill-rule:nonzero;stroke:none"
         id="path84"
         inkscape:connector-curvature="0" />
    </g>
  </g>
</svg>
