<?xml version="1.0" encoding="UTF-8"?>
<!-- Created with Inkscape (http://www.inkscape.org/) -->
<svg width="737.22" height="110.84" version="1.1" viewBox="0 0 737.23671 110.84107" xml:space="preserve" xmlns="http://www.w3.org/2000/svg" xmlns:cc="http://creativecommons.org/ns#" xmlns:dc="http://purl.org/dc/elements/1.1/" xmlns:rdf="http://www.w3.org/1999/02/22-rdf-syntax-ns#"><metadata><rdf:RDF><cc:Work rdf:about=""><dc:format>image/svg+xml</dc:format><dc:type rdf:resource="http://purl.org/dc/dcmitype/StillImage"/><dc:title/></cc:Work></rdf:RDF></metadata><defs><clipPath id="clipPath869"><path d="M 0,595.275 H 841.89 V 0 H 0 Z"/></clipPath></defs><g transform="matrix(1.3333 0 0 -1.3333 -202.74 462.87)"><g clip-path="url(#clipPath869)"><g transform="translate(166.58,330.16)"><path d="m0 0c-3.513-4.056-6.303-7.818-8.214-11.544-6.945-13.364-8.056-22.582-3.816-31.848 0.943-1.965 2.3-3.601 3.875-4.948 7.838-6.542 21.673-5.011 27.03 4.864 11.15 20.731-7.457 29.574 6.192 45.528 6.364 7.448 10.944 11.25 7.827 13.698-6.644 5.139-24.934-6.581-32.894-15.75m53.206 9.405c-4.022 0.135-2.85-5.71-2.663-15.546 0.41-20.923-19.595-16.069-24.105-39.023-2.146-11.095 7.519-21.064 17.759-20.965 2.06 0.019 4.153 0.434 6.137 1.33 9.172 4.506 14.151 12.346 17.318 27.063 0.844 4.086 1.095 8.738 0.94 14.117-0.322 12.129-6.997 32.846-15.386 33.024" fill="#d21134"/></g><g transform="translate(653.99,270.4)"><path d="m0 0c-1.269 0-1.902 0.847-1.69 2.007l8.659 48.236c0.212 0.845 0.634 1.479 1.585 1.902 6.652 2.534 14.572 4.223 21.436 4.223 15.945 0 23.126-10.138 20.486-25.133l-5.28-29.545c-0.211-1.054-0.843-1.69-2.006-1.69h-12.145c-1.16 0-1.794 0.847-1.689 2.007l5.28 30.812c1.267 6.654-1.055 9.715-6.652 9.715-2.536 0-5.174-0.527-6.759-1.266l-6.97-39.578c-0.21-1.16-0.844-1.69-2.007-1.69zm-19.111 59.649c0.756 0 1.259 0.168 1.764 0.757l9.817 11.091c0.924 0.924 0.505 1.849-0.756 1.849h-10.631c-0.757 0-1.345-0.252-1.849-0.841l-6.284-11.091c-0.756-0.924-0.419-1.765 0.841-1.765zm-0.163-25.774-2.428-13.507c-0.845-4.956-4.225-7.906-9.716-7.906-4.963 0-7.182 3.373-6.231 8.539l2.43 13.613c0.844 4.753 4.435 7.92 9.504 7.92s7.287-3.907 6.441-8.659m-4.647 22.493c-14.679 0-25.026-7.92-27.35-20.697l-2.218-13.089c-2.428-13.393 6.127-23.953 20.277-23.953 15.523 0 25.132 7.603 27.56 20.895l2.43 13.295c2.216 12.883-6.23 23.549-20.699 23.549m-38.55 1.601c-5.384 0-8.764 4.329-7.708 9.82 0.845 4.647 4.436 7.709 9.293 7.709 5.386 0 8.766-4.224 7.708-9.926-0.843-4.329-4.54-7.603-9.293-7.603m-16.495-57.969c-1.162 0-1.795 0.847-1.584 2.007l9.08 51.299c0.108 1.056 0.846 1.584 1.902 1.584h12.249c1.267 0 1.901-0.74 1.69-1.902l-9.082-51.298c-0.211-1.054-0.844-1.69-2.007-1.69zm-29.308-1.371c-8.765 0-15.629 2.323-21.438 7.076-0.95 0.738-0.95 1.69-0.316 2.533l6.019 8.23c0.739 0.948 1.584 1.053 2.534 0.422 4.119-3.058 8.765-4.534 13.729-4.534 5.068 0 7.603 1.582 8.131 4.006 0.739 3.268-2.957 4.113-7.181 5.06-10.35 2.108-18.586 8.335-16.263 19.74 2.218 10.665 11.088 15.206 23.867 15.206 7.287 0 12.883-1.584 18.586-4.857 1.054-0.634 1.161-1.584 0.421-2.534l-6.23-8.343c-0.633-0.95-1.479-1.056-2.534-0.529-3.273 1.902-7.286 2.852-11.722 2.852-3.907 0-6.336-0.845-6.759-3.484-0.633-3.169 2.746-4.119 7.815-5.282 8.132-1.795 18.269-6.863 16.051-19.2-2.112-11.187-11.51-16.362-24.71-16.362m-27.127 59.34c-5.386 0-8.764 4.329-7.708 9.82 0.844 4.647 4.434 7.709 9.292 7.709 5.386 0 8.765-4.224 7.709-9.926-0.845-4.329-4.541-7.603-9.293-7.603m-16.497-57.969c-1.161 0-1.794 0.847-1.583 2.007l9.082 51.299c0.105 1.056 0.844 1.584 1.9 1.584h12.25c1.268 0 1.9-0.74 1.689-1.902l-9.082-51.298c-0.211-1.054-0.844-1.69-2.005-1.69zm-40.186 0c-1.161 0-1.902 0.53-2.008 1.69l-8.13 51.298c-0.106 1.162 0.528 1.902 1.795 1.902h12.251c1.058 0 1.796-0.528 1.903-1.69l2.532-22.704c0.422-3.591 0.951-9.18 1.267-13.924h0.212c1.901 4.639 3.8 9.489 5.702 14.03l10.032 22.916c0.423 0.844 1.162 1.372 2.216 1.372h13.096c1.373 0 1.902-0.845 1.268-2.113l-26.083-51.401c-0.424-0.951-1.162-1.376-2.113-1.376zm-41.282 11.829c2.429 0 5.387 0.422 7.288 0.843l1.478 9.172c-2.006 0.421-4.434 0.738-6.758 0.738-5.176 0-7.922-1.686-8.449-4.851-0.739-4.004 1.795-5.902 6.441-5.902m-2.006-13.2c-14.784 0-22.283 8.448-20.17 19.947 1.795 10.231 10.455 14.772 23.973 14.772 3.168 0 6.337-0.318 8.975-0.845l0.211 1.688c0.951 5.176-0.527 8.027-7.18 8.027-4.647 0-9.399-0.95-12.567-2.429-1.162-0.527-2.007-0.316-2.429 0.845l-3.274 8.659c-0.317 0.95-0.317 1.689 0.317 2.112 5.069 3.063 12.988 4.963 21.543 4.963 14.362 0 21.754-9.504 18.902-25.344l-4.752-26.693c-0.211-0.949-0.633-1.689-1.583-2.007-6.019-2.11-13.833-3.695-21.966-3.695m-145.56 0c-14.256 0-22.915 9.504-20.275 24.48l2.323 13.089c2.323 13.306 12.884 20.17 26.295 20.17 6.653 0 11.827-2.006 16.051-5.068 0.844-0.634 0.951-1.585 0.317-2.534l-6.231-8.027c-0.739-0.844-1.478-0.95-2.534-0.316-2.323 1.372-5.175 2.218-8.131 2.218-5.597 0-8.976-2.957-9.927-8.132l-2.217-12.454c-1.268-6.431 1.583-9.699 6.758-9.699 2.958 0 6.547 1.054 9.926 3.056 1.056 0.634 2.006 0.423 2.535-0.631l4.118-9.076c0.529-1.058 0.317-1.901-0.845-2.536-5.701-3.169-11.826-4.54-18.163-4.54m46.276 13.2c2.43 0 5.386 0.422 7.286 0.843l1.48 9.172c-2.007 0.421-4.435 0.738-6.759 0.738-5.174 0-7.921-1.686-8.448-4.851-0.738-4.004 1.796-5.902 6.441-5.902m-2.006-13.2c-14.784 0-22.281 8.448-20.169 19.947 1.795 10.231 10.454 14.772 23.971 14.772 3.168 0 6.337-0.318 8.977-0.845l0.211 1.688c0.95 5.176-0.529 8.027-7.182 8.027-4.645 0-9.398-0.95-12.566-2.429-1.162-0.527-2.006-0.316-2.429 0.845l-3.274 8.659c-0.316 0.95-0.316 1.689 0.317 2.112 5.069 3.063 12.989 4.963 21.543 4.963 14.361 0 21.754-9.504 18.902-25.344l-4.752-26.693c-0.211-0.949-0.634-1.689-1.584-2.007-6.018-2.11-13.834-3.695-21.965-3.695m31.076 1.371c-1.268 0-1.901 0.741-1.69 2.007l1.268 6.865c0.211 0.846 0.527 1.48 1.055 2.112l26.717 30.389h-18.69c-1.162 0-1.796 0.739-1.585 1.9l1.901 10.033c0.106 1.056 0.845 1.584 1.901 1.584h38.543c1.163 0 1.796-0.74 1.585-1.902l-1.056-6.44c-0.211-0.846-0.529-1.479-1.056-2.112l-26.717-30.709h20.698c1.161 0 1.795-0.738 1.584-2.003l-1.902-10.034c-0.104-1.054-0.844-1.69-1.899-1.69z" fill="#d21134"/></g></g></g></svg>
