<?xml version="1.0" encoding="UTF-8" standalone="no"?>
<!-- Created with Inkscape (http://www.inkscape.org/) -->

<svg
   xmlns:dc="http://purl.org/dc/elements/1.1/"
   xmlns:cc="http://creativecommons.org/ns#"
   xmlns:rdf="http://www.w3.org/1999/02/22-rdf-syntax-ns#"
   xmlns:svg="http://www.w3.org/2000/svg"
   xmlns="http://www.w3.org/2000/svg"
   xmlns:sodipodi="http://sodipodi.sourceforge.net/DTD/sodipodi-0.dtd"
   xmlns:inkscape="http://www.inkscape.org/namespaces/inkscape"
   width="603.55786"
   height="102.48711"
   version="1.1"
   viewBox="0 0 603.57157 102.48811"
   xml:space="preserve"
   id="svg21"
   sodipodi:docname="cv.svg"
   inkscape:version="0.92.4 (5da689c313, 2019-01-14)"><sodipodi:namedview
     pagecolor="#ffffff"
     bordercolor="#666666"
     borderopacity="1"
     objecttolerance="10"
     gridtolerance="10"
     guidetolerance="10"
     inkscape:pageopacity="0"
     inkscape:pageshadow="2"
     inkscape:window-width="1920"
     inkscape:window-height="1016"
     id="namedview23"
     showgrid="false"
     inkscape:zoom="0.58462876"
     inkscape:cx="238.36699"
     inkscape:cy="48.748643"
     inkscape:window-x="0"
     inkscape:window-y="36"
     inkscape:window-maximized="1"
     inkscape:current-layer="g11" /><metadata
     id="metadata2"><rdf:RDF><cc:Work
         rdf:about=""><dc:format>image/svg+xml</dc:format><dc:type
           rdf:resource="http://purl.org/dc/dcmitype/StillImage" /><dc:title></dc:title></cc:Work></rdf:RDF></metadata><defs
     id="defs7"><clipPath
       id="clipPath869"><path
         d="M 0,595.275 H 841.89 V 0 H 0 Z"
         id="path4"
         inkscape:connector-curvature="0" /></clipPath></defs><g
     transform="matrix(1.3333,0,0,-1.3333,-336.40606,461.18508)"
     id="g19"><g
       clip-path="url(#clipPath869)"
       id="g17"><g
         transform="translate(166.58,330.16)"
         id="g11" /><g
         transform="translate(653.99,270.4)"
         id="g15"><path
           d="m 0,0 c -1.269,0 -1.902,0.847 -1.69,2.007 l 8.659,48.236 c 0.212,0.845 0.634,1.479 1.585,1.902 6.652,2.534 14.572,4.223 21.436,4.223 15.945,0 23.126,-10.138 20.486,-25.133 L 45.196,1.69 C 44.985,0.636 44.353,0 43.19,0 H 31.045 c -1.16,0 -1.794,0.847 -1.689,2.007 l 5.28,30.812 c 1.267,6.654 -1.055,9.715 -6.652,9.715 -2.536,0 -5.174,-0.527 -6.759,-1.266 L 14.255,1.69 C 14.045,0.53 13.411,0 12.248,0 Z m -19.111,59.649 c 0.756,0 1.259,0.168 1.764,0.757 l 9.817,11.091 c 0.924,0.924 0.505,1.849 -0.756,1.849 h -10.631 c -0.757,0 -1.345,-0.252 -1.849,-0.841 L -27.05,61.414 c -0.756,-0.924 -0.419,-1.765 0.841,-1.765 z m -0.163,-25.774 -2.428,-13.507 c -0.845,-4.956 -4.225,-7.906 -9.716,-7.906 -4.963,0 -7.182,3.373 -6.231,8.539 l 2.43,13.613 c 0.844,4.753 4.435,7.92 9.504,7.92 5.069,0 7.287,-3.907 6.441,-8.659 m -4.647,22.493 c -14.679,0 -25.026,-7.92 -27.35,-20.697 l -2.218,-13.089 c -2.428,-13.393 6.127,-23.953 20.277,-23.953 15.523,0 25.132,7.603 27.56,20.895 l 2.43,13.295 c 2.216,12.883 -6.23,23.549 -20.699,23.549 m -38.55,1.601 c -5.384,0 -8.764,4.329 -7.708,9.82 0.845,4.647 4.436,7.709 9.293,7.709 5.386,0 8.766,-4.224 7.708,-9.926 -0.843,-4.329 -4.54,-7.603 -9.293,-7.603 M -78.966,0 c -1.162,0 -1.795,0.847 -1.584,2.007 l 9.08,51.299 c 0.108,1.056 0.846,1.584 1.902,1.584 h 12.249 c 1.267,0 1.901,-0.74 1.69,-1.902 L -64.711,1.69 C -64.922,0.636 -65.555,0 -66.718,0 Z m -29.308,-1.371 c -8.765,0 -15.629,2.323 -21.438,7.076 -0.95,0.738 -0.95,1.69 -0.316,2.533 l 6.019,8.23 c 0.739,0.948 1.584,1.053 2.534,0.422 4.119,-3.058 8.765,-4.534 13.729,-4.534 5.068,0 7.603,1.582 8.131,4.006 0.739,3.268 -2.957,4.113 -7.181,5.06 -10.35,2.108 -18.586,8.335 -16.263,19.74 2.218,10.665 11.088,15.206 23.867,15.206 7.287,0 12.883,-1.584 18.586,-4.857 1.054,-0.634 1.161,-1.584 0.421,-2.534 l -6.23,-8.343 c -0.633,-0.95 -1.479,-1.056 -2.534,-0.529 -3.273,1.902 -7.286,2.852 -11.722,2.852 -3.907,0 -6.336,-0.845 -6.759,-3.484 -0.633,-3.169 2.746,-4.119 7.815,-5.282 8.132,-1.795 18.269,-6.863 16.051,-19.2 -2.112,-11.187 -11.51,-16.362 -24.71,-16.362 m -27.127,59.34 c -5.386,0 -8.764,4.329 -7.708,9.82 0.844,4.647 4.434,7.709 9.292,7.709 5.386,0 8.765,-4.224 7.709,-9.926 -0.845,-4.329 -4.541,-7.603 -9.293,-7.603 M -151.898,0 c -1.161,0 -1.794,0.847 -1.583,2.007 l 9.082,51.299 c 0.105,1.056 0.844,1.584 1.9,1.584 h 12.25 c 1.268,0 1.9,-0.74 1.689,-1.902 L -137.642,1.69 C -137.853,0.636 -138.486,0 -139.647,0 Z m -40.186,0 c -1.161,0 -1.902,0.53 -2.008,1.69 l -8.13,51.298 c -0.106,1.162 0.528,1.902 1.795,1.902 h 12.251 c 1.058,0 1.796,-0.528 1.903,-1.69 l 2.532,-22.704 c 0.422,-3.591 0.951,-9.18 1.267,-13.924 h 0.212 c 1.901,4.639 3.8,9.489 5.702,14.03 l 10.032,22.916 c 0.423,0.844 1.162,1.372 2.216,1.372 h 13.096 c 1.373,0 1.902,-0.845 1.268,-2.113 L -176.031,1.376 C -176.455,0.425 -177.193,0 -178.144,0 Z m -41.282,11.829 c 2.429,0 5.387,0.422 7.288,0.843 l 1.478,9.172 c -2.006,0.421 -4.434,0.738 -6.758,0.738 -5.176,0 -7.922,-1.686 -8.449,-4.851 -0.739,-4.004 1.795,-5.902 6.441,-5.902 m -2.006,-13.2 c -14.784,0 -22.283,8.448 -20.17,19.947 1.795,10.231 10.455,14.772 23.973,14.772 3.168,0 6.337,-0.318 8.975,-0.845 l 0.211,1.688 c 0.951,5.176 -0.527,8.027 -7.18,8.027 -4.647,0 -9.399,-0.95 -12.567,-2.429 -1.162,-0.527 -2.007,-0.316 -2.429,0.845 l -3.274,8.659 c -0.317,0.95 -0.317,1.689 0.317,2.112 5.069,3.063 12.988,4.963 21.543,4.963 14.362,0 21.754,-9.504 18.902,-25.344 l -4.752,-26.693 c -0.211,-0.949 -0.633,-1.689 -1.583,-2.007 -6.019,-2.11 -13.833,-3.695 -21.966,-3.695 m -145.56,0 c -14.256,0 -22.915,9.504 -20.275,24.48 l 2.323,13.089 c 2.323,13.306 12.884,20.17 26.295,20.17 6.653,0 11.827,-2.006 16.051,-5.068 0.844,-0.634 0.951,-1.585 0.317,-2.534 l -6.231,-8.027 c -0.739,-0.844 -1.478,-0.95 -2.534,-0.316 -2.323,1.372 -5.175,2.218 -8.131,2.218 -5.597,0 -8.976,-2.957 -9.927,-8.132 l -2.217,-12.454 c -1.268,-6.431 1.583,-9.699 6.758,-9.699 2.958,0 6.547,1.054 9.926,3.056 1.056,0.634 2.006,0.423 2.535,-0.631 l 4.118,-9.076 c 0.529,-1.058 0.317,-1.901 -0.845,-2.536 -5.701,-3.169 -11.826,-4.54 -18.163,-4.54 m 46.276,13.2 c 2.43,0 5.386,0.422 7.286,0.843 l 1.48,9.172 c -2.007,0.421 -4.435,0.738 -6.759,0.738 -5.174,0 -7.921,-1.686 -8.448,-4.851 -0.738,-4.004 1.796,-5.902 6.441,-5.902 m -2.006,-13.2 c -14.784,0 -22.281,8.448 -20.169,19.947 1.795,10.231 10.454,14.772 23.971,14.772 3.168,0 6.337,-0.318 8.977,-0.845 l 0.211,1.688 c 0.95,5.176 -0.529,8.027 -7.182,8.027 -4.645,0 -9.398,-0.95 -12.566,-2.429 -1.162,-0.527 -2.006,-0.316 -2.429,0.845 l -3.274,8.659 c -0.316,0.95 -0.316,1.689 0.317,2.112 5.069,3.063 12.989,4.963 21.543,4.963 14.361,0 21.754,-9.504 18.902,-25.344 l -4.752,-26.693 c -0.211,-0.949 -0.634,-1.689 -1.584,-2.007 -6.018,-2.11 -13.834,-3.695 -21.965,-3.695 M -305.586,0 c -1.268,0 -1.901,0.741 -1.69,2.007 l 1.268,6.865 c 0.211,0.846 0.527,1.48 1.055,2.112 l 26.717,30.389 h -18.69 c -1.162,0 -1.796,0.739 -1.585,1.9 l 1.901,10.033 c 0.106,1.056 0.845,1.584 1.901,1.584 h 38.543 c 1.163,0 1.796,-0.74 1.585,-1.902 l -1.056,-6.44 c -0.211,-0.846 -0.529,-1.479 -1.056,-2.112 L -283.41,13.727 h 20.698 c 1.161,0 1.795,-0.738 1.584,-2.003 L -263.03,1.69 C -263.134,0.636 -263.874,0 -264.929,0 Z"
           id="path13"
           inkscape:connector-curvature="0"
           style="fill:#d21134" /></g></g></g></svg>