<?xml version="1.0" encoding="UTF-8" standalone="no"?>
<svg
   xmlns:dc="http://purl.org/dc/elements/1.1/"
   xmlns:cc="http://creativecommons.org/ns#"
   xmlns:rdf="http://www.w3.org/1999/02/22-rdf-syntax-ns#"
   xmlns:svg="http://www.w3.org/2000/svg"
   xmlns="http://www.w3.org/2000/svg"
   xmlns:sodipodi="http://sodipodi.sourceforge.net/DTD/sodipodi-0.dtd"
   xmlns:inkscape="http://www.inkscape.org/namespaces/inkscape"
   width="127.94308pt"
   height="131.9473pt"
   version="1.1"
   viewBox="0 0 127.94308 131.9473"
   id="svg16"
   sodipodi:docname="DK.svg"
   inkscape:version="0.92.4 (5da689c313, 2019-01-14)">
  <metadata
     id="metadata22">
    <rdf:RDF>
      <cc:Work
         rdf:about="">
        <dc:format>image/svg+xml</dc:format>
        <dc:type
           rdf:resource="http://purl.org/dc/dcmitype/StillImage" />
        <dc:title></dc:title>
      </cc:Work>
    </rdf:RDF>
  </metadata>
  <defs
     id="defs20" />
  <sodipodi:namedview
     pagecolor="#ffffff"
     bordercolor="#666666"
     borderopacity="1"
     objecttolerance="10"
     gridtolerance="10"
     guidetolerance="10"
     inkscape:pageopacity="0"
     inkscape:pageshadow="2"
     inkscape:window-width="1920"
     inkscape:window-height="1016"
     id="namedview18"
     showgrid="false"
     inkscape:zoom="0.51309524"
     inkscape:cx="513.35499"
     inkscape:cy="94.073596"
     inkscape:window-x="0"
     inkscape:window-y="36"
     inkscape:window-maximized="1"
     inkscape:current-layer="svg16" />
  <g
     id="g12"
     style="fill:#fefffe"
     transform="translate(-52.037123,-87.607889)">
    <path
       d="m 387.67,90.7 c 12.54,-6.92 27.36,-7.17 41.29,-6.09 15.58,1.44 30.75,7.32 42.97,17.15 -6.4,8.54 -12.27,17.46 -18.6,26.05 -10.57,-7.61 -23.23,-12.78 -36.36,-13.18 -4.87,-0.08 -11,0.89 -13.32,5.8 -1.02,3.06 -0.53,6.8 2.07,8.95 3.58,2.7 8.03,3.85 12.27,5.09 14.35,3.61 29.48,6.12 42.08,14.4 7.42,4.71 13.08,12.34 14.59,21.09 1.97,11.23 0.08,23.56 -6.89,32.82 -10.91,14.61 -30.42,19.3 -47.81,18.69 -21.77,-0.01 -43.73,-7.39 -60.23,-21.78 6.63,-8.34 13.64,-16.37 20.34,-24.66 11.48,8.77 25.24,15.43 39.92,15.72 5.28,0.06 11.27,0.51 15.58,-3.14 3.5,-2.71 3.71,-8.58 0.35,-11.48 -3.51,-2.89 -8.02,-4.07 -12.28,-5.39 -14.05,-3.74 -28.86,-6.09 -41.44,-13.82 -8.46,-5.05 -14.84,-13.88 -15.76,-23.83 -0.38,-5.09 -0.48,-10.28 0.41,-15.34 2.26,-11.61 10.32,-21.72 20.82,-27.05 z"
       id="path2"
       inkscape:connector-curvature="0" />
    <path
       d="m 495.39,95.33 c 10.5,-8.46 24.39,-11.57 37.66,-11.15 19.14,-0.34 38.75,5.26 53.59,17.64 -6.25,8.58 -12.28,17.31 -18.39,25.99 -10.89,-7.7 -23.84,-12.98 -37.3,-13.2 -4.23,0.11 -9.13,0.94 -11.82,4.56 -2.06,3.51 -1.39,9.01 2.49,11.02 9.09,4.94 19.6,5.89 29.41,8.73 11.42,3.22 23.37,7.43 31.47,16.56 6.9,7.62 8.51,18.6 7.28,28.49 -0.96,10.75 -6.85,20.91 -15.65,27.15 -10.95,7.89 -24.82,10.66 -38.11,10.35 -22.2,0.24 -44.79,-7.08 -61.53,-21.9 6.85,-8.18 13.69,-16.36 20.49,-24.59 12.13,9.69 27.33,16.27 43.07,15.8 4.89,0.12 10.78,-0.49 13.84,-4.84 2.56,-3.68 1.03,-9.06 -2.88,-11.1 -8.72,-4.64 -18.7,-5.79 -28.09,-8.46 -11.11,-3.08 -22.75,-6.8 -31.08,-15.17 -7.89,-7.73 -10.23,-19.61 -8.71,-30.23 1.16,-9.98 6.36,-19.41 14.26,-25.65 z"
       id="path4"
       inkscape:connector-curvature="0" />
    <path
       d="m 51.18,86.34 c 17.29,-0.01 34.57,0 51.85,0 19.25,0.03 39.42,3.8 55.17,15.51 11.9,8.78 19.34,22.65 21.55,37.15 2.61,17.13 0.35,35.71 -9.41,50.38 -8.42,12.75 -22.12,21.17 -36.56,25.5 -9.64,3.06 -19.77,3.96 -29.82,4.43 -17.56,0.13 -35.12,-0.1 -52.67,0.11 C 51.05,175.06 51.26,130.7 51.18,86.34 Z"
       id="path6"
       inkscape:connector-curvature="0" />
    <path
       d="m 185.44,86.31 c 12.3,0.06 24.6,-0.01 36.9,0.05 0.03,17.94 -0.18,35.89 0.1,53.82 14.78,-18.18 30.29,-35.76 45.2,-53.84 14.55,0.05 29.12,-0.09 43.67,0.07 -15.93,18.03 -31.67,36.25 -47.66,54.24 -0.74,1.09 -2.3,1.91 -2.07,3.44 17.13,25.09 34.47,50.06 51.37,75.3 -14.64,-0.1 -29.28,-0.05 -43.92,-0.02 -11.13,-16.38 -22.35,-32.7 -33.16,-49.28 -4.84,4.65 -9.29,9.78 -13.51,14.97 -0.14,11.42 0.02,22.86 -0.07,34.29 -12.27,0.01 -24.53,-0.06 -36.8,0.03 -0.06,-44.35 0.05,-88.71 -0.05,-133.07 z"
       id="path8"
       inkscape:connector-curvature="0" />
    <path
       d="m 317.62,86.36 c 12.35,-0.03 24.69,-0.03 37.04,-0.02 -0.14,44.34 -0.01,88.69 -0.07,133.03 -12.31,-0.07 -24.63,-0.01 -36.94,-0.02 -0.06,-44.33 0,-88.66 -0.03,-132.99 z"
       id="path10"
       inkscape:connector-curvature="0" />
  </g>
  <path
     style="fill:#642e84;fill-opacity:1;stroke-width:1.46171689"
     d="M 0,65.973651 V 0 l 33.984921,0.0216 c 24.943185,0.015825 36.444172,0.6013725 43.22847,2.2007625 28.700559,6.7661177 46.231029,24.8446865 49.934509,51.4957265 5.04143,36.2793 -14.13996,64.549761 -50.407759,74.293411 -6.33081,1.70082 -18.223343,2.5759 -42.75522,3.14601 L 0,131.9473 Z"
     id="path24"
     inkscape:connector-curvature="0" />
</svg>
