<?xml version="1.0" encoding="UTF-8" standalone="no"?>
<svg
   xmlns:dc="http://purl.org/dc/elements/1.1/"
   xmlns:cc="http://creativecommons.org/ns#"
   xmlns:rdf="http://www.w3.org/1999/02/22-rdf-syntax-ns#"
   xmlns:svg="http://www.w3.org/2000/svg"
   xmlns="http://www.w3.org/2000/svg"
   xmlns:sodipodi="http://sodipodi.sourceforge.net/DTD/sodipodi-0.dtd"
   xmlns:inkscape="http://www.inkscape.org/namespaces/inkscape"
   width="537.35901pt"
   height="135.6162pt"
   version="1.1"
   viewBox="0 0 537.35901 135.6162"
   id="svg16"
   sodipodi:docname="DKb.svg"
   inkscape:version="0.92.4 (5da689c313, 2019-01-14)">
  <metadata
     id="metadata22">
    <rdf:RDF>
      <cc:Work
         rdf:about="">
        <dc:format>image/svg+xml</dc:format>
        <dc:type
           rdf:resource="http://purl.org/dc/dcmitype/StillImage" />
        <dc:title></dc:title>
      </cc:Work>
    </rdf:RDF>
  </metadata>
  <defs
     id="defs20" />
  <sodipodi:namedview
     pagecolor="#ffffff"
     bordercolor="#666666"
     borderopacity="1"
     objecttolerance="10"
     gridtolerance="10"
     guidetolerance="10"
     inkscape:pageopacity="0"
     inkscape:pageshadow="2"
     inkscape:window-width="1920"
     inkscape:window-height="1016"
     id="namedview18"
     showgrid="false"
     inkscape:zoom="0.51309524"
     inkscape:cx="513.35499"
     inkscape:cy="95.443364"
     inkscape:window-x="0"
     inkscape:window-y="36"
     inkscape:window-maximized="1"
     inkscape:current-layer="svg16" />
  <g
     id="g12"
     style="fill:#fefffe"
     transform="translate(-52.037123,-84.966322)">
    <path
       d="m 387.67,90.7 c 12.54,-6.92 27.36,-7.17 41.29,-6.09 15.58,1.44 30.75,7.32 42.97,17.15 -6.4,8.54 -12.27,17.46 -18.6,26.05 -10.57,-7.61 -23.23,-12.78 -36.36,-13.18 -4.87,-0.08 -11,0.89 -13.32,5.8 -1.02,3.06 -0.53,6.8 2.07,8.95 3.58,2.7 8.03,3.85 12.27,5.09 14.35,3.61 29.48,6.12 42.08,14.4 7.42,4.71 13.08,12.34 14.59,21.09 1.97,11.23 0.08,23.56 -6.89,32.82 -10.91,14.61 -30.42,19.3 -47.81,18.69 -21.77,-0.01 -43.73,-7.39 -60.23,-21.78 6.63,-8.34 13.64,-16.37 20.34,-24.66 11.48,8.77 25.24,15.43 39.92,15.72 5.28,0.06 11.27,0.51 15.58,-3.14 3.5,-2.71 3.71,-8.58 0.35,-11.48 -3.51,-2.89 -8.02,-4.07 -12.28,-5.39 -14.05,-3.74 -28.86,-6.09 -41.44,-13.82 -8.46,-5.05 -14.84,-13.88 -15.76,-23.83 -0.38,-5.09 -0.48,-10.28 0.41,-15.34 2.26,-11.61 10.32,-21.72 20.82,-27.05 z"
       id="path2"
       inkscape:connector-curvature="0" />
    <path
       d="m 495.39,95.33 c 10.5,-8.46 24.39,-11.57 37.66,-11.15 19.14,-0.34 38.75,5.26 53.59,17.64 -6.25,8.58 -12.28,17.31 -18.39,25.99 -10.89,-7.7 -23.84,-12.98 -37.3,-13.2 -4.23,0.11 -9.13,0.94 -11.82,4.56 -2.06,3.51 -1.39,9.01 2.49,11.02 9.09,4.94 19.6,5.89 29.41,8.73 11.42,3.22 23.37,7.43 31.47,16.56 6.9,7.62 8.51,18.6 7.28,28.49 -0.96,10.75 -6.85,20.91 -15.65,27.15 -10.95,7.89 -24.82,10.66 -38.11,10.35 -22.2,0.24 -44.79,-7.08 -61.53,-21.9 6.85,-8.18 13.69,-16.36 20.49,-24.59 12.13,9.69 27.33,16.27 43.07,15.8 4.89,0.12 10.78,-0.49 13.84,-4.84 2.56,-3.68 1.03,-9.06 -2.88,-11.1 -8.72,-4.64 -18.7,-5.79 -28.09,-8.46 -11.11,-3.08 -22.75,-6.8 -31.08,-15.17 -7.89,-7.73 -10.23,-19.61 -8.71,-30.23 1.16,-9.98 6.36,-19.41 14.26,-25.65 z"
       id="path4"
       inkscape:connector-curvature="0" />
    <path
       d="m 51.18,86.34 c 17.29,-0.01 34.57,0 51.85,0 19.25,0.03 39.42,3.8 55.17,15.51 11.9,8.78 19.34,22.65 21.55,37.15 2.61,17.13 0.35,35.71 -9.41,50.38 -8.42,12.75 -22.12,21.17 -36.56,25.5 -9.64,3.06 -19.77,3.96 -29.82,4.43 -17.56,0.13 -35.12,-0.1 -52.67,0.11 C 51.05,175.06 51.26,130.7 51.18,86.34 Z"
       id="path6"
       inkscape:connector-curvature="0" />
    <path
       d="m 185.44,86.31 c 12.3,0.06 24.6,-0.01 36.9,0.05 0.03,17.94 -0.18,35.89 0.1,53.82 14.78,-18.18 30.29,-35.76 45.2,-53.84 14.55,0.05 29.12,-0.09 43.67,0.07 -15.93,18.03 -31.67,36.25 -47.66,54.24 -0.74,1.09 -2.3,1.91 -2.07,3.44 17.13,25.09 34.47,50.06 51.37,75.3 -14.64,-0.1 -29.28,-0.05 -43.92,-0.02 -11.13,-16.38 -22.35,-32.7 -33.16,-49.28 -4.84,4.65 -9.29,9.78 -13.51,14.97 -0.14,11.42 0.02,22.86 -0.07,34.29 -12.27,0.01 -24.53,-0.06 -36.8,0.03 -0.06,-44.35 0.05,-88.71 -0.05,-133.07 z"
       id="path8"
       inkscape:connector-curvature="0" />
    <path
       d="m 317.62,86.36 c 12.35,-0.03 24.69,-0.03 37.04,-0.02 -0.14,44.34 -0.01,88.69 -0.07,133.03 -12.31,-0.07 -24.63,-0.01 -36.94,-0.02 -0.06,-44.33 0,-88.66 -0.03,-132.99 z"
       id="path10"
       inkscape:connector-curvature="0" />
  </g>
  <path
     style="fill:#642e84;fill-opacity:1;stroke-width:1.46171689"
     d="M 0,68.615218 V 2.6415668 l 33.984921,0.0216 c 24.943185,0.015825 36.444172,0.6013725 43.22847,2.2007625 28.700559,6.7661177 46.231029,24.8446867 49.934509,51.4957267 5.04143,36.2793 -14.13996,64.549764 -50.407759,74.293414 -6.33081,1.70082 -18.223343,2.5759 -42.75522,3.14601 L 0,134.58887 Z"
     id="path24"
     inkscape:connector-curvature="0" />
  <path
     style="fill:#642e84;fill-opacity:1;stroke-width:1.46171689"
     d="M 134.47795,68.418823 V 2.6415668 h 17.54061 17.5406 V 28.952466 c 0,14.471003 0.49333,26.268233 1.09629,26.21607 0.60296,-0.0522 10.90212,-11.892075 22.88702,-26.310907 L 215.33319,2.6415668 h 21.03156 21.03155 L 233.81685,29.317896 c -12.9687,14.671988 -23.88444,27.39936 -24.25719,28.283055 -0.37276,0.883695 10.51443,17.985787 24.19374,38.004645 13.67932,20.018854 24.89377,36.909304 24.921,37.534344 0.0272,0.62503 -9.31548,0.95392 -20.76157,0.73085 l -20.81106,-0.40556 -16.7259,-24.76293 -16.72591,-24.762939 -7.04539,7.866142 -7.04541,7.866135 v 17.262222 17.26223 h -17.5406 -17.54061 z"
     id="path26"
     inkscape:connector-curvature="0" />
  <path
     style="fill:#642e84;fill-opacity:1;stroke-width:1.46171689"
     d="M 266.03248,68.418823 V 2.6415668 h 18.27146 18.27147 V 68.418823 134.19609 h -18.27147 -18.27146 z"
     id="path28"
     inkscape:connector-curvature="0" />
  <path
     style="fill:#642e84;fill-opacity:1;stroke-width:1.46171689"
     d="m 347.15777,133.59114 c -11.01807,-2.52184 -23.73975,-8.12382 -32.12699,-14.14709 l -6.47166,-4.64758 8.74916,-10.70718 c 4.81203,-5.888957 9.33053,-11.066499 10.04109,-11.505654 0.71058,-0.439155 5.12926,1.479922 9.81932,4.26462 13.80423,8.196194 33.63457,11.905594 43.53137,8.142844 5.47916,-2.08317 7.69603,-7.723864 4.78292,-12.169827 -2.78115,-4.24458 -5.92147,-5.546617 -27.07353,-11.225242 -28.67511,-7.6983 -39.39168,-15.615638 -42.69871,-31.54554 -3.44983,-16.617795 2.68041,-31.781887 16.64615,-41.1767618 10.20716,-6.8664449 16.97046,-8.42842488 35.99577,-8.31320239 13.28469,0.08046 18.70281,0.76472249 25.83708,3.26301749 11.85785,4.1523974 23.17602,10.9540577 22.9529,13.7935427 -0.0977,1.242697 -3.67215,7.138934 -7.94332,13.102754 l -7.76576,10.84332 -9.5973,-4.917502 c -10.27794,-5.26626 -26.21632,-8.791718 -32.55472,-7.200878 -8.35949,2.098095 -11.17013,10.033223 -5.44352,15.368378 1.66428,1.550512 6.10425,3.61905 9.86659,4.59675 36.68339,9.53274 45.95732,13.769789 53.40698,24.400477 6.09881,8.703007 7.14184,24.192547 2.3752,35.272894 -4.00642,9.31319 -14.24254,18.91727 -24.23349,22.73719 -9.43884,3.60883 -35.82097,4.5801 -48.09553,1.77067 z"
     id="path30"
     inkscape:connector-curvature="0" />
  <path
     style="fill:#642e84;fill-opacity:1;stroke-width:1.46171689"
     d="m 461.90255,133.38478 c -10.41185,-2.2362 -31.54794,-12.01749 -35.56868,-16.46035 -2.4418,-2.69816 -2.19653,-3.21519 6.44951,-13.59605 4.9433,-5.935174 9.49911,-10.986604 10.12402,-11.225404 0.62491,-0.2388 4.33224,1.593667 8.23853,4.072155 15.31575,9.717659 38.58888,13.340659 46.37156,7.218809 4.54186,-3.572632 5.0231,-8.954242 1.14729,-12.830054 -1.48727,-1.487265 -8.22944,-4.160055 -14.9826,-5.93952 -32.58379,-8.585865 -42.21476,-13.268633 -49.29559,-23.968492 -5.53918,-8.37027 -6.28142,-23.695793 -1.66712,-34.422023 4.01631,-9.336164 14.84214,-19.4579468 24.44097,-22.8514717 17.08517,-6.0401999 44.78132,-3.77984247 62.47992,5.0991599 15.80894,7.9310028 15.52758,6.7795578 5.16448,21.1346468 l -9.04522,12.52956 -4.02592,-2.86671 c -9.58427,-6.824602 -27.68869,-11.51523 -37.40786,-9.691905 -6.82349,1.280093 -10.60182,6.747 -8.24222,11.925765 2.01956,4.43244 6.48181,6.386213 26.51498,11.6094 18.19905,4.744988 27.96398,9.292552 35.51004,16.537177 14.52979,13.949385 11.49806,42.025477 -5.97183,55.303557 -13.09218,9.95077 -37.33391,13.34017 -60.23426,8.42175 z"
     id="path32"
     inkscape:connector-curvature="0" />
</svg>
