<?xml version="1.0" encoding="UTF-8" standalone="no"?>
<svg
   xmlns:dc="http://purl.org/dc/elements/1.1/"
   xmlns:cc="http://creativecommons.org/ns#"
   xmlns:rdf="http://www.w3.org/1999/02/22-rdf-syntax-ns#"
   xmlns:svg="http://www.w3.org/2000/svg"
   xmlns="http://www.w3.org/2000/svg"
   xmlns:sodipodi="http://sodipodi.sourceforge.net/DTD/sodipodi-0.dtd"
   xmlns:inkscape="http://www.inkscape.org/namespaces/inkscape"
   width="179pt"
   height="47pt"
   viewBox="0 0 179 47"
   version="1.1"
   id="svg11"
   sodipodi:docname="DKiBn.svg"
   inkscape:version="0.92.4 (5da689c313, 2019-01-14)">
  <metadata
     id="metadata17">
    <rdf:RDF>
      <cc:Work
         rdf:about="">
        <dc:format>image/svg+xml</dc:format>
        <dc:type
           rdf:resource="http://purl.org/dc/dcmitype/StillImage" />
        <dc:title></dc:title>
      </cc:Work>
    </rdf:RDF>
  </metadata>
  <defs
     id="defs15" />
  <sodipodi:namedview
     pagecolor="#ffffff"
     bordercolor="#666666"
     borderopacity="1"
     objecttolerance="10"
     gridtolerance="10"
     guidetolerance="10"
     inkscape:pageopacity="0"
     inkscape:pageshadow="2"
     inkscape:window-width="1920"
     inkscape:window-height="1016"
     id="namedview13"
     showgrid="false"
     inkscape:zoom="1.8058659"
     inkscape:cx="86.385151"
     inkscape:cy="31.333333"
     inkscape:window-x="0"
     inkscape:window-y="36"
     inkscape:window-maximized="1"
     inkscape:current-layer="svg11" />
  <g
     id="#b4252dff"
     style="fill:#642e84">
    <path
       id="path2"
       d=" M 2.38 1.61 C 13.44 2.18 25.42 -0.28 35.59 5.29 C 46.45 11.15 48.24 26.93 41.48 36.52 C 36.99 42.61 29.28 45.30 21.96 45.68 C 15.43 45.88 8.89 45.72 2.35 45.76 C 2.38 31.05 2.33 16.33 2.38 1.61 Z"
       opacity="1.00"
       fill="#2db425"
       style="fill:#642e84" />
    <path
       id="path4"
       d=" M 111.72 2.73 C 120.58 -0.96 131.65 0.73 139.02 6.88 C 136.96 9.73 134.93 12.61 132.95 15.51 C 128.64 12.83 123.62 10.38 118.39 11.46 C 116.63 11.79 115.96 13.54 116.38 15.17 C 117.82 16.91 120.18 17.28 122.24 17.86 C 127.19 19.07 132.52 20.05 136.54 23.44 C 141.06 27.27 141.07 34.34 138.47 39.28 C 134.98 44.70 128.19 46.80 122.03 46.61 C 114.78 46.47 107.10 44.34 101.86 39.09 C 104.25 36.61 106.00 33.01 108.92 31.34 C 114.18 34.94 121.08 38.02 127.36 35.22 C 127.68 33.64 128.10 31.45 126.04 30.88 C 119.71 28.14 111.90 28.32 106.76 23.16 C 101.03 17.00 104.04 5.81 111.72 2.73 Z"
       opacity="1.00"
       fill="#2db425"
       style="fill:#642e84" />
    <path
       id="path6"
       d=" M 146.87 3.79 C 154.16 -0.67 163.61 0.30 171.15 3.63 C 172.70 4.64 175.08 5.23 175.78 7.04 C 174.07 10.01 171.84 12.64 169.98 15.51 C 165.67 12.77 160.57 10.38 155.34 11.48 C 153.08 11.83 152.53 15.37 154.70 16.25 C 160.80 19.08 168.31 18.77 173.56 23.45 C 179.28 28.33 178.15 38.12 172.51 42.61 C 167.64 46.51 160.99 47.06 155.00 46.36 C 149.11 45.48 143.13 43.37 138.84 39.08 C 141.31 36.67 143.05 33.01 145.95 31.33 C 151.20 34.89 158.10 38.03 164.37 35.23 C 164.75 33.64 165.10 31.45 163.06 30.88 C 157.16 28.30 150.08 28.39 144.92 24.15 C 138.44 19.04 140.05 7.87 146.87 3.79 Z"
       opacity="1.00"
       fill="#2db425"
       style="fill:#642e84" />
    <path
       id="path8"
       d=" M 46.46 45.76 C 46.48 31.05 46.44 16.33 46.48 1.62 C 50.53 1.63 54.59 1.63 58.65 1.61 C 58.71 7.52 58.62 13.43 58.71 19.34 C 63.78 13.48 68.71 7.49 73.77 1.62 C 78.59 1.64 83.41 1.59 88.24 1.67 C 82.90 7.92 77.56 14.17 71.96 20.19 C 72.85 22.99 74.92 25.17 76.48 27.60 C 80.43 33.55 84.67 39.31 88.44 45.38 C 88.80 30.80 88.57 16.20 88.56 1.61 C 92.75 1.63 96.94 1.61 101.12 1.65 C 101.11 16.34 101.17 31.03 101.12 45.72 C 92.07 45.80 83.03 45.79 73.98 45.72 C 70.41 40.31 66.78 34.92 63.09 29.58 C 61.61 31.26 60.12 32.92 58.64 34.60 C 58.68 38.32 58.67 42.04 58.66 45.77 C 54.59 45.77 50.53 45.77 46.46 45.76 Z"
       opacity="1.00"
       fill="#2db425"
       style="fill:#642e84" />
  </g>
</svg>
